<svg width="640" height="480" xmlns="http://www.w3.org/2000/svg" xmlns:xlink="http://www.w3.org/1999/xlink">
 <!-- Created with SVG-edit - http://svg-edit.googlecode.com/ -->
 <defs>
  <svg viewBox="0 0 512 512" height="512px" width="512px" y="0px" x="0px" id="svg_1" xmlns:xlink="http://www.w3.org/1999/xlink">
   <g>
    <path d="m417.399994,224h-322.799995c-16.900002,0 -30.599998,14.300003 -30.599998,32c0,17.700012 13.699997,32 30.599998,32h322.799995c16.899994,0 30.600006,-14.299988 30.600006,-32c0,-17.699997 -13.700012,-32 -30.600006,-32z"/>
    <path d="m417.399994,96h-322.799995c-16.900002,0 -30.599998,14.300003 -30.599998,32c0,17.699997 13.699997,32 30.599998,32h322.799995c16.899994,0 30.600006,-14.300003 30.600006,-32c0,-17.699997 -13.700012,-32 -30.600006,-32z"/>
    <path d="m417.399994,352h-322.799995c-16.900002,0 -30.599998,14.299988 -30.599998,32c0,17.700012 13.699997,32 30.599998,32h322.799995c16.899994,0 30.600006,-14.299988 30.600006,-32c0,-17.700012 -13.700012,-32 -30.600006,-32z"/>
   </g>
  </svg>
 </defs>
 <g>
  <title>Layer 1</title>
  <use fill="#34495e" x="76.456092" y="3.188585" transform="matrix(1.2321891157714648,0,0,1.1541149944512614,-95.14880003098612,-54.63343584263155) " id="svg_2" xlink:href="#svg_1"/>
 </g>
</svg>